HIERARCHY
ROOT Hips
{
	OFFSET 0.000000 0.000000 0.000000
	CHANNELS 6 Xposition Yposition Zposition Zrotation Yrotation Xrotation 
	JOINT LHipJoint
	{
		OFFSET 0.000000 0.000000 0.000000
		CHANNELS 3 Zrotation Yrotation Xrotation
		JOINT LeftUpLeg
		{
			OFFSET 1.363060 -1.794630 0.839290
			CHANNELS 3 Zrotation Yrotation Xrotation
			JOINT LeftLeg
			{
				OFFSET 2.448110 -6.726130 0.000000
				CHANNELS 3 Zrotation Yrotation Xrotation
				JOINT LeftFoot
				{
					OFFSET 2.562200 -7.039590 0.000000
					CHANNELS 3 Zrotation Yrotation Xrotation
					JOINT LeftToeBase
					{
						OFFSET 0.157640 -0.433110 2.322550
						CHANNELS 3 Zrotation Yrotation Xrotation
						End Site
						{
							OFFSET 0.000000 0.000000 0.000000
						}
					}
				}
			}
		}
	}
	JOINT RHipJoint
	{
		OFFSET 0.000000 0.000000 0.000000
		CHANNELS 3 Zrotation Yrotation Xrotation
		JOINT RightUpLeg
		{
			OFFSET -1.305520 -1.794630 0.839290
			CHANNELS 3 Zrotation Yrotation Xrotation
			JOINT RightLeg
			{
				OFFSET -2.542530 -6.985550 0.000000
				CHANNELS 3 Zrotation Yrotation Xrotation
				JOINT RightFoot
				{
					OFFSET -2.568260 -7.056230 0.000000
					CHANNELS 3 Zrotation Yrotation Xrotation
					JOINT RightToeBase
					{
						OFFSET -0.164730 -0.452590 2.363150
						CHANNELS 3 Zrotation Yrotation Xrotation
						End Site
						{
							OFFSET 0.000000 0.000000 0.000000
						}
					}
				}
			}
		}
	}
	JOINT LowerBack
	{
		OFFSET 0.000000 0.000000 0.000000
		CHANNELS 3 Zrotation Yrotation Xrotation
		JOINT Spine
		{
			OFFSET 0.028270 2.035590 -0.193380
			CHANNELS 3 Zrotation Yrotation Xrotation
			JOINT Spine1
			{
				OFFSET 0.056720 2.048850 -0.042750
				CHANNELS 3 Zrotation Yrotation Xrotation
				JOINT Neck
				{
					OFFSET 0.000000 0.000000 0.000000
					CHANNELS 3 Zrotation Yrotation Xrotation
					JOINT Neck1
					{
						OFFSET -0.054170 1.746240 0.172020
						CHANNELS 3 Zrotation Yrotation Xrotation
						JOINT Head
						{
							OFFSET 0.104070 1.761360 -0.123970
							CHANNELS 3 Zrotation Yrotation Xrotation
							End Site
							{
								OFFSET 0.000000 0.000000 0.000000
							}
						}
					}
				}
				JOINT LeftShoulder
				{
					OFFSET 0.000000 0.000000 0.000000
					CHANNELS 3 Zrotation Yrotation Xrotation
					JOINT LeftArm
					{
						OFFSET 3.362410 1.200890 -0.311210
						CHANNELS 3 Zrotation Yrotation Xrotation
						JOINT LeftForeArm
						{
							OFFSET 4.983000 -0.000000 -0.000000
							CHANNELS 3 Zrotation Yrotation Xrotation
							JOINT LeftHand
							{
								OFFSET 3.483560 -0.000000 -0.000000
								CHANNELS 3 Zrotation Yrotation Xrotation
								JOINT LeftFingerBase
								{
									OFFSET 0.000000 0.000000 0.000000
									CHANNELS 3 Zrotation Yrotation Xrotation
									JOINT LeftHandIndex1
									{
										OFFSET 0.715260 -0.000000 -0.000000
										CHANNELS 3 Zrotation Yrotation Xrotation
										End Site
										{
											OFFSET 0.000000 0.000000 0.000000
										}
									}
								}
								JOINT LThumb
								{
									OFFSET 0.000000 0.000000 0.000000
									CHANNELS 3 Zrotation Yrotation Xrotation
									End Site
									{
										OFFSET 0.000000 0.000000 0.000000
									}
								}
							}
						}
					}
				}
				JOINT RightShoulder
				{
					OFFSET 0.000000 0.000000 0.000000
					CHANNELS 3 Zrotation Yrotation Xrotation
					JOINT RightArm
					{
						OFFSET -3.136600 1.374050 -0.404650
						CHANNELS 3 Zrotation Yrotation Xrotation
						JOINT RightForeArm
						{
							OFFSET -5.241900 -0.000000 -0.000000
							CHANNELS 3 Zrotation Yrotation Xrotation
							JOINT RightHand
							{
								OFFSET -3.444170 -0.000000 -0.000000
								CHANNELS 3 Zrotation Yrotation Xrotation
								JOINT RightFingerBase
								{
									OFFSET 0.000000 0.000000 0.000000
									CHANNELS 3 Zrotation Yrotation Xrotation
									JOINT RightHandIndex1
									{
										OFFSET -0.622530 -0.000000 -0.000000
										CHANNELS 3 Zrotation Yrotation Xrotation
										End Site
										{
											OFFSET 0.000000 0.000000 0.000000
										}
									}
								}
								JOINT RThumb
								{
									OFFSET 0.000000 0.000000 0.000000
									CHANNELS 3 Zrotation Yrotation Xrotation
									End Site
									{
										OFFSET 0.000000 0.000000 0.000000
									}
								}
							}
						}
					}
				}
			}
		}
	}
}
MOTION
Frames: 5
Frame Time: 0.008333
1.150309 19.452312 14.972706 -165.631155 -65.139375 -172.007906 2.476578 -1.092687 -0.839251 -11.450040 -8.728792 -32.074766 3.495330 14.858077 40.495152 -4.450072 16.597193 -13.855968 1.515000 7.772900 22.026300 -5.402029 0.279568 0.442711 26.364796 18.712069 -37.498343 -3.559356 -16.214067 43.022243 -179.005544 11.331072 14.207084 -0.021800 0.954300 -2.623100 6.001696 0.663025 -3.646271 1.350574 0.154013 -7.034384 -1.037516 -0.346663 -6.066057 -8.666397 -16.483689 -15.546445 10.985990 -23.801513 10.891428 2.930700 -10.760400 14.265800 -11.041920 -8.028133 3.728724 -32.021393 16.392025 -7.471876 10.670538 -15.422423 -1.997037 0.234197 1.171793 26.591115 1.625763 19.029701 0.596600 -7.125000 0.000000 0.000000 -24.414500 46.302800 -0.834300 10.239350 10.107773 6.041423 16.371839 -3.041372 -39.827162 -6.709824 8.427815 -1.020855 -1.159193 0.669053 27.416196 -6.197660 8.766746 -0.739300 7.125000 0.000000 0.000000 15.772800 -21.333800 9.305400 
1.125641 19.458719 14.837193 -163.767652 -64.081575 -173.949714 2.450506 -1.050974 -0.858502 -10.743696 -8.686653 -31.490159 3.546910 14.800709 40.374544 -5.100781 18.186361 -13.270632 0.768200 5.596600 15.618400 -5.400004 0.286996 0.400456 26.769805 18.610778 -37.501588 -3.496355 -16.188651 42.919308 -178.953767 12.017007 15.260393 -0.001200 0.226300 -0.621700 6.891717 0.664265 -3.362924 1.620389 0.099191 -6.858061 -0.325279 -0.306046 -5.440363 -8.849585 -16.191277 -16.047271 10.870941 -23.263075 11.000140 2.911900 -10.501500 14.324900 -10.933610 -8.037239 3.691456 -32.258750 16.292323 -9.722515 10.365486 -15.081648 -1.943812 0.279301 1.197921 27.903126 1.692758 19.298252 0.624500 -7.125000 0.000000 0.000000 -24.459800 46.521900 -0.976200 10.316625 10.049746 6.005315 14.984200 -2.796187 -46.072041 -6.649101 8.077764 -1.019594 -1.204149 0.682547 32.921112 -7.291302 9.014731 -0.940400 7.125000 0.000000 0.000000 15.000100 -20.926900 8.959600 
1.106420 19.462350 14.712893 -162.245523 -62.876671 -175.524676 2.437613 -0.992589 -0.847829 -9.971018 -9.060718 -30.615320 3.435304 14.695138 40.213877 -4.006767 15.427514 -14.249579 1.215200 6.992800 19.694100 -5.453529 0.284847 0.384408 26.597421 19.688936 -37.451164 -3.348956 -16.143661 42.680200 -177.529937 18.000822 14.005747 -0.447200 -4.290400 11.895100 7.999928 0.832619 -2.747067 1.733805 0.364913 -6.752041 -0.272980 -0.184732 -5.305821 -8.993036 -16.109810 -16.321846 10.990623 -23.144022 11.097394 3.008200 -10.428700 14.528400 -10.927576 -8.004423 3.704882 -31.847125 16.161337 -10.648095 10.178318 -14.843077 -1.910620 0.317251 1.219779 28.539818 1.973956 19.610955 0.719600 -7.125000 0.000000 0.000000 -24.345100 46.810100 -1.154300 10.361345 10.017425 5.985691 14.292426 -3.322195 -51.264401 -6.769213 7.930593 -1.058167 -1.254491 0.718128 37.233880 -8.189656 9.393984 -1.133900 7.125000 0.000000 0.000000 14.365300 -20.425000 8.723500 
1.081218 19.469718 14.585924 -161.986118 -61.716703 -175.690470 2.399245 -0.964487 -0.819129 -9.606803 -10.105596 -29.644493 3.283693 14.588617 39.943546 -2.722044 12.348847 -15.654291 1.793900 8.423000 24.006300 -5.532709 0.283051 0.390855 25.218580 21.819288 -37.676674 -3.320474 -16.142632 42.348488 -175.339954 25.708581 9.513406 -2.469200 -9.781700 28.272800 8.578477 0.984890 -2.309503 1.757559 0.619393 -6.726227 -0.345826 -0.085226 -5.432498 -9.069523 -16.057802 -16.336801 11.166183 -23.124712 11.168663 3.134300 -10.419700 14.671300 -10.957621 -7.932963 3.722435 -31.159131 16.344281 -10.831844 10.112236 -14.744767 -1.914321 0.311578 1.244737 28.752971 1.934789 20.127178 0.732700 -7.125000 0.000000 0.000000 -24.588100 47.260500 -1.456400 10.383543 9.965435 5.992474 13.958471 -4.239850 -53.982887 -6.908016 7.881849 -1.085152 -1.285880 0.714820 39.238441 -8.815655 9.351309 -1.241900 7.125000 0.000000 0.000000 13.934300 -20.373300 8.462000 
1.055376 19.461603 14.439626 -162.407108 -60.670997 -175.137235 2.323617 -0.960836 -0.790327 -9.557439 -10.880173 -28.797301 3.147604 14.447136 39.543556 -2.302986 11.401676 -16.310191 1.832600 8.508400 24.269200 -5.535334 0.283836 0.351513 23.829916 22.361050 -38.425180 -3.313141 -16.148505 42.089440 -174.528292 28.464935 7.429074 -3.107100 -10.866400 31.830700 8.480925 1.016188 -2.243777 1.841872 0.632356 -6.664897 0.077208 -0.047009 -5.176417 -8.955889 -15.830248 -16.587650 11.031056 -22.748785 11.197255 3.048700 -10.236800 14.585800 -10.915510 -7.876578 3.700413 -30.786026 16.486280 -12.294462 10.002675 -14.586306 -1.909451 0.301646 1.250803 29.898957 1.421462 20.478425 0.588800 -7.125000 0.000000 0.000000 -25.179500 47.521500 -1.667800 10.423867 9.863689 5.980881 13.412667 -4.928490 -56.216263 -6.998431 7.837157 -1.100927 -1.316366 0.706926 40.958980 -9.556266 9.276947 -1.366700 7.125000 0.000000 0.000000 13.420900 -20.349900 8.139400 
